Coordinates
version=1
nRows=17
nColumns=36
inDegrees=yes

Units are S.I. units (second, meters, Newtons, ...)
If the header above contains a line with 'inDegrees', this indicates whether rotational values are in degrees (yes) or radians (no).

endheader
time	pelvis_tilt	pelvis_list	pelvis_rotation	pelvis_tx	pelvis_ty	pelvis_tz	hip_flexion_r	hip_adduction_r	hip_rotation_r	knee_angle_r	knee_angle_r_beta	ankle_angle_r	subtalar_angle_r	mtp_angle_r	hip_flexion_l	hip_adduction_l	hip_rotation_l	knee_angle_l	knee_angle_l_beta	ankle_angle_l	subtalar_angle_l	mtp_angle_l	lumbar_extension	lumbar_bending	lumbar_rotation	arm_flex_r	arm_add_r	arm_rot_r	elbow_flex_r	pro_sup_r	arm_flex_l	arm_add_l	arm_rot_l	elbow_flex_l	pro_sup_l
      1.69166670	     -6.81757509	     -0.58855886	     -3.07373210	     -1.02633007	      1.37420809	     -0.09144097	      3.73342560	      1.87297521	    -11.52229531	      0.14989520	      0.00261616	     10.37197228	     -3.09713555	     -7.49999987	      2.66747686	      0.77764525	    -15.92526136	      0.12451137	      0.00217313	     10.29860544	     -2.53351012	     -7.49999987	      5.23392787	      0.64791830	      2.07259654	     -5.70119935	     -8.66610971	      7.24878836	     34.05053885	     73.24902216	     -4.39827384	    -11.90306236	     15.36767570	     36.34356260	     86.97162176
      1.69583330	     -6.91398503	     -0.55407413	     -3.04748406	     -1.02508297	      1.37406891	     -0.09018452	      3.88544992	      1.84258882	    -11.56855524	      0.15149262	      0.00264404	     10.30245837	     -3.07761002	     -7.49999987	      2.78708413	      0.80745051	    -16.01709432	      0.12507933	      0.00218305	     10.38630954	     -2.33364705	     -7.49999987	      5.25644711	      0.60562801	      2.13483008	     -5.63278766	     -8.82853489	      7.61512939	     33.91200684	     73.50535039	     -4.31984762	    -12.03578095	     15.90779714	     36.30815168	     87.35368170
      1.70000000	     -6.84721638	     -0.56703769	     -2.98307873	     -1.02397047	      1.37557123	     -0.08875518	      3.82459446	      1.87362349	    -11.42101350	      0.15234688	      0.00265895	     10.45225283	     -3.20280209	     -7.49999987	      2.70709187	      0.77369760	    -15.90382907	      0.12548397	      0.00219011	     10.33941423	     -2.52650998	     -7.49999987	      5.05416065	      0.58660511	      2.09278528	     -5.63936064	     -8.85347898	      7.35950152	     34.10073435	     72.92118138	     -4.40043914	    -12.05214092	     15.70332760	     36.46084423	     86.23677927
      1.70416670	     -6.90901325	     -0.53618708	     -2.93704420	     -1.02581422	      1.37497454	     -0.08972732	      3.93436156	      1.83573146	    -11.38565960	      0.15397346	      0.00268734	     10.50377384	     -3.31080205	     -7.49999987	      2.80954487	      0.79870359	    -15.88603625	      0.12782106	      0.00223090	     10.36395467	     -2.63510025	     -7.49999987	      5.03956354	      0.55537980	      2.04507193	     -5.47912806	     -8.85663381	      6.94008000	     33.75851284	     74.85814736	     -4.43526549	    -11.95327262	     14.87456200	     36.32475125	     89.64196213
      1.70833330	     -6.96475753	     -0.49569796	     -2.89418864	     -1.02587068	      1.37818602	     -0.08844761	      4.03465534	      1.82054233	    -11.31899159	      0.15320419	      0.00267392	     10.46308685	     -3.25508138	     -7.49999987	      2.90825649	      0.79433253	    -15.86778255	      0.12790595	      0.00223238	     10.18643768	     -2.61452153	     -7.49999987	      5.02243994	      0.48576219	      2.01307004	     -5.30984587	     -8.85139330	      7.00484349	     33.43409211	     73.53543511	     -4.38762073	    -12.03740669	     15.26952084	     36.15469053	     87.07495592
      1.71250000	     -6.97519901	     -0.53649909	     -2.82561372	     -1.02528284	      1.37247857	     -0.08811980	      4.05986401	      1.90099767	    -11.21056240	      0.15330438	      0.00267567	     10.56222496	     -3.28089424	     -7.49999987	      2.97959921	      0.72096938	    -15.70019414	      0.12853094	      0.00224329	     10.24047020	     -2.50825906	     -7.49999987	      4.93724299	      0.50953541	      1.93697370	     -5.19136074	     -8.94009347	      7.09107762	     33.33730167	     72.34220565	     -4.36850804	    -12.13943062	     15.62180605	     36.09903311	     84.98926571
      1.71666670	     -6.92241356	     -0.55304564	     -2.76687238	     -1.02475507	      1.37630731	     -0.08892903	      4.00359530	      1.93548858	    -11.11998067	      0.15404174	      0.00268854	     10.56463705	     -3.32885420	     -7.49999987	      2.94332548	      0.67996887	    -15.52423775	      0.12763364	      0.00222763	     10.18348123	     -2.44328748	     -7.49999987	      4.74751508	      0.51102320	      1.92402140	     -5.19424040	     -9.03697775	      6.99315425	     33.47216848	     71.62070830	     -4.39447647	    -12.16682373	     15.69045688	     36.18704773	     83.57604054
      1.72083330	     -7.01422659	     -0.56892545	     -2.70997671	     -1.02468550	      1.37299039	     -0.08877033	      4.07770737	      1.97571143	    -11.11962540	      0.15520510	      0.00270884	     10.56791674	     -3.40661334	     -7.49999987	      3.04351252	      0.64988684	    -15.61007993	      0.12897358	      0.00225101	     10.32235542	     -2.13134221	     -7.49999987	      4.81478639	      0.49849670	      1.89941488	     -5.21711765	     -9.07302554	      6.28575057	     33.33574521	     74.97714791	     -4.57917665	    -12.05078671	     14.38877606	     36.25695133	     89.80013639
      1.72500000	     -7.00885205	     -0.57139027	     -2.69617726	     -1.02594280	      1.37490610	     -0.08779856	      4.06876412	      1.99230558	    -10.98401965	      0.15616606	      0.00272561	     10.53635125	     -3.57871967	     -7.49999987	      3.04957067	      0.63020773	    -15.50131334	      0.12868674	      0.00224601	     10.29236816	     -2.30700982	     -7.49999987	      4.64766111	      0.47248096	      1.89052057	     -5.22738153	     -9.17608886	      6.15370526	     33.57242828	     74.19526238	     -4.64798640	    -12.12462839	     14.39454582	     36.42583614	     88.10136515
      1.72916670	     -7.06832514	     -0.57183632	     -2.63597508	     -1.02695445	      1.37265521	     -0.08800516	      4.13732770	      1.99973495	    -10.98623708	      0.15767594	      0.00275196	     10.68096815	     -3.54017990	     -7.49999987	      3.13049284	      0.61698680	    -15.42749060	      0.12995540	      0.00226815	     10.29687786	     -2.55653945	     -7.49999987	      4.62616171	      0.47454639	      1.88135354	     -5.13592372	     -9.26104916	      6.05371874	     33.48165829	     73.51812560	     -4.62979503	    -12.18643860	     14.57737631	     36.39040614	     86.57634012
      1.73333330	     -7.16819363	     -0.55417054	     -2.58736775	     -1.02645301	      1.37483086	     -0.08749380	      4.24921795	      2.00164257	    -10.82616310	      0.15804715	      0.00275844	     10.55413561	     -3.81838319	     -7.49999987	      3.23577293	      0.60820558	    -15.59318276	      0.13179090	      0.00230019	     10.35696976	     -2.63345979	     -7.49999987	      4.68766165	      0.43045868	      1.95490141	     -5.06646125	     -9.30263618	      5.71598051	     33.16642419	     74.98629265	     -4.54197323	    -12.22893558	     14.45860734	     36.15006401	     89.36626406
      1.73750000	     -7.18481144	     -0.53833019	     -2.53988005	     -1.02541122	      1.37431866	     -0.08705285	      4.24233842	      1.99711787	    -10.66503735	      0.15810706	      0.00275949	     10.39581278	     -4.15512963	     -7.49999987	      3.24317075	      0.60523771	    -15.52555011	      0.13331126	      0.00232672	     10.19912716	     -3.06327593	     -7.49999987	      4.58066496	      0.37202789	      1.94647441	     -5.12533887	     -9.39957660	      5.59344001	     33.36649207	     74.44027029	     -4.65147548	    -12.32999355	     14.43084235	     36.37968426	     88.34108003
      1.74166670	     -7.19689704	     -0.53166705	     -2.48285868	     -1.02532226	      1.37491998	     -0.08687728	      4.21662157	      1.99946434	    -10.79483529	      0.15969796	      0.00278726	     10.48738206	     -3.96256291	     -7.49999987	      3.23166625	      0.59010112	    -15.64239951	      0.13565993	      0.00236771	     10.19249074	     -3.18113945	     -7.49999987	      4.55780739	      0.33906330	      1.93293672	     -5.02470055	     -9.45946318	      5.58804400	     32.97423070	     73.68884576	     -4.63415538	    -12.45246937	     14.91434666	     36.14641101	     87.01499024
      1.74583330	     -7.15321911	     -0.52375419	     -2.45316475	     -1.02605326	      1.37586999	     -0.08652578	      4.13745745	      2.00607879	    -10.58099361	      0.16204964	      0.00282830	     10.31885431	     -4.38203555	     -7.49999987	      3.19711077	      0.58684506	    -15.55911902	      0.13729110	      0.00239618	     10.01214110	     -3.54772263	     -7.49999987	      4.36129985	      0.28373946	      1.93348483	     -5.09218090	     -9.56585194	      5.38029890	     33.20373617	     73.14307473	     -4.70038748	    -12.53219925	     14.92264300	     36.29819353	     85.89369717
      1.75000000	     -7.16544581	     -0.48101743	     -2.44415185	     -1.02810861	      1.37767844	     -0.08590184	      4.19456889	      2.00392422	    -10.54646576	      0.16322709	      0.00284885	     10.18381689	     -4.59601638	     -7.49999987	      3.24221828	      0.61880752	    -15.59364427	      0.13834275	      0.00241454	      9.71903567	     -3.94568856	     -7.49999987	      4.18415505	      0.17691354	      1.96571029	     -5.11202348	     -9.64434651	      5.14692220	     33.42180948	     72.30827175	     -4.73838775	    -12.65456461	     15.01219053	     36.50594730	     84.22970843
      1.75416670	     -7.31921895	     -0.42837533	     -2.46745179	     -1.02838781	      1.37558882	     -0.08665428	      4.41261412	      1.97707916	    -10.48118076	      0.16527177	      0.00288454	     10.11040961	     -4.63011484	     -7.49999987	      3.44933769	      0.67299078	    -15.78267937	      0.14135455	      0.00246710	      9.66951066	     -3.78598868	     -7.49999987	      4.25606467	      0.10838209	      2.11441219	     -5.14277336	     -9.65406029	      4.22875399	     33.26808677	     74.85933682	     -4.70157662	    -12.64638812	     14.42329294	     36.29105159	     89.08546691
      1.75833330	     -7.30981770	     -0.39937917	     -2.45362685	     -1.02665746	      1.37531219	     -0.08578862	      4.41574245	      1.97215816	    -10.47008834	      0.16377667	      0.00285844	      9.98367253	     -4.77061551	     -7.49999987	      3.47017137	      0.69875637	    -15.63169788	      0.14267525	      0.00249015	      9.43093437	     -4.12903729	     -7.49999987	      4.07726523	      0.04700074	      2.09809843	     -5.16907991	     -9.77633212	      4.06175380	     33.49883102	     74.02817323	     -4.83677673	    -12.74231533	     14.39643653	     36.53906307	     87.53198831
